<svg xmlns="http://www.w3.org/2000/svg" version="1.1" xmlns:xlink="http://www.w3.org/1999/xlink" xmlns:svgjs="http://svgjs.dev/svgjs" width="467" height="463"><svg version="1.1" xmlns="http://www.w3.org/2000/svg" width="467" height="463">
<path d="M0,0 L260,0 L260,1 L276,1 L276,2 L279,2 L279,3 L286,3 L286,4 L291,4 L291,5 L293,5 L293,6 L296,6 L296,7 L300,7 L300,8 L302,8 L302,9 L305,9 L305,10 L307,10 L307,11 L309,11 L309,12 L311,12 L311,13 L313,13 L313,14 L315,14 L315,15 L316,15 L316,16 L318,16 L318,17 L320,17 L320,18 L321,18 L321,19 L323,19 L323,20 L324,20 L324,21 L326,21 L326,22 L327,22 L327,23 L328,23 L328,24 L329,24 L329,25 L328,25 L328,26 L327,26 L327,27 L326,27 L326,28 L325,28 L325,29 L324,29 L324,30 L323,30 L323,31 L322,31 L322,32 L321,32 L321,33 L320,33 L320,34 L319,34 L319,35 L318,35 L318,36 L317,36 L317,37 L316,37 L316,38 L315,38 L315,39 L314,39 L314,40 L313,40 L313,41 L312,41 L312,42 L311,42 L311,43 L310,43 L310,44 L309,44 L309,45 L308,45 L308,46 L307,46 L307,47 L306,47 L306,48 L305,48 L305,49 L304,49 L304,50 L303,50 L303,51 L302,51 L302,52 L301,52 L301,53 L300,53 L300,54 L299,54 L299,55 L298,55 L298,56 L297,56 L297,57 L296,57 L296,58 L295,58 L295,59 L294,59 L294,60 L293,60 L293,61 L292,61 L292,62 L291,62 L291,63 L290,63 L290,64 L289,64 L289,65 L288,65 L288,66 L287,66 L287,67 L286,67 L286,68 L285,68 L285,69 L284,69 L284,70 L283,70 L283,71 L282,71 L282,72 L281,72 L281,73 L280,73 L280,74 L279,74 L279,75 L278,75 L278,76 L277,76 L277,77 L276,77 L276,78 L275,78 L275,79 L274,79 L274,80 L273,80 L273,81 L272,81 L272,82 L271,82 L271,83 L270,83 L270,84 L269,84 L269,85 L268,85 L268,86 L267,86 L267,87 L266,87 L266,88 L265,88 L265,89 L264,89 L264,90 L263,90 L263,91 L262,91 L262,92 L261,92 L261,93 L260,93 L260,94 L259,94 L259,95 L258,95 L258,96 L257,96 L257,97 L256,97 L256,98 L255,98 L255,99 L254,99 L254,100 L253,100 L253,101 L252,101 L252,102 L251,102 L251,103 L250,103 L250,104 L249,104 L249,105 L248,105 L248,106 L247,106 L247,107 L246,107 L246,108 L245,108 L245,109 L244,109 L244,110 L243,110 L243,111 L242,111 L242,112 L241,112 L241,113 L240,113 L240,114 L239,114 L239,115 L238,115 L238,116 L237,116 L237,117 L236,117 L236,118 L235,118 L235,119 L234,119 L234,120 L233,120 L233,121 L232,121 L232,122 L231,122 L231,123 L230,123 L230,124 L229,124 L229,125 L228,125 L228,126 L227,126 L227,127 L226,127 L226,128 L225,128 L225,129 L224,129 L224,130 L223,130 L223,131 L222,131 L222,132 L221,132 L221,133 L220,133 L220,134 L219,134 L219,135 L218,135 L218,136 L217,136 L217,137 L216,137 L216,138 L215,138 L215,139 L214,139 L214,140 L213,140 L213,141 L212,141 L212,142 L211,142 L211,143 L210,143 L210,144 L209,144 L209,145 L208,145 L208,146 L207,146 L207,147 L206,147 L206,148 L205,148 L205,149 L204,149 L204,150 L203,150 L203,151 L202,151 L202,152 L201,152 L201,153 L200,153 L200,154 L199,154 L199,155 L198,155 L198,156 L197,156 L197,157 L196,157 L196,158 L195,158 L195,159 L194,159 L194,160 L193,160 L193,161 L192,161 L192,162 L191,162 L191,163 L190,163 L190,164 L189,164 L189,165 L188,165 L188,166 L187,166 L187,167 L186,167 L186,168 L185,168 L185,169 L184,169 L184,170 L183,170 L183,171 L182,171 L182,172 L181,172 L181,173 L180,173 L180,174 L179,174 L179,175 L178,175 L178,176 L177,176 L177,177 L176,177 L176,178 L175,178 L175,179 L174,179 L174,180 L173,180 L173,181 L172,181 L172,182 L171,182 L171,183 L170,183 L170,184 L169,184 L169,185 L168,185 L168,186 L167,186 L167,187 L166,187 L166,188 L165,188 L165,189 L164,189 L164,190 L163,190 L163,191 L162,191 L162,192 L161,192 L161,193 L160,193 L160,194 L159,194 L159,195 L158,195 L158,196 L157,196 L157,197 L156,197 L156,198 L155,198 L155,199 L154,199 L154,200 L153,200 L153,201 L152,201 L152,202 L151,202 L151,203 L150,203 L150,204 L149,204 L149,205 L148,205 L148,206 L147,206 L147,207 L146,207 L146,208 L145,208 L145,209 L144,209 L144,196 L143,196 L143,195 L142,195 L142,194 L125,194 L125,195 L124,195 L124,196 L122,196 L122,197 L121,197 L121,198 L120,198 L120,199 L118,199 L118,200 L117,200 L117,201 L116,201 L116,202 L115,202 L115,203 L113,203 L113,204 L112,204 L112,205 L110,205 L110,206 L109,206 L109,207 L108,207 L108,208 L107,208 L107,209 L105,209 L105,210 L104,210 L104,211 L103,211 L103,212 L101,212 L101,214 L100,214 L100,231 L101,231 L101,233 L105,233 L105,232 L106,232 L106,231 L108,231 L108,230 L109,230 L109,229 L110,229 L110,228 L112,228 L112,227 L113,227 L113,226 L114,226 L114,225 L115,225 L115,224 L117,224 L117,223 L118,223 L118,222 L119,222 L119,221 L121,221 L121,220 L123,220 L123,297 L121,297 L121,298 L120,298 L120,299 L119,299 L119,300 L118,300 L118,301 L117,301 L117,302 L116,302 L116,303 L115,303 L115,304 L114,304 L114,305 L113,305 L113,306 L112,306 L112,307 L111,307 L111,308 L110,308 L110,309 L109,309 L109,310 L108,310 L108,311 L107,311 L107,312 L106,312 L106,313 L105,313 L105,314 L104,314 L104,315 L103,315 L103,316 L102,316 L102,318 L101,318 L101,319 L99,319 L99,320 L98,320 L98,321 L97,321 L97,322 L96,322 L96,324 L95,324 L95,325 L94,325 L94,326 L93,326 L93,327 L92,327 L92,328 L91,328 L91,329 L89,329 L89,330 L88,330 L88,332 L87,332 L87,333 L86,333 L86,334 L85,334 L85,335 L84,335 L84,336 L83,336 L83,337 L82,337 L82,338 L81,338 L81,339 L80,339 L80,340 L79,340 L79,341 L78,341 L78,342 L77,342 L77,343 L76,343 L76,344 L75,344 L75,345 L74,345 L74,346 L73,346 L73,347 L72,347 L72,348 L71,348 L71,349 L70,349 L70,350 L69,350 L69,351 L68,351 L68,352 L67,352 L67,353 L66,353 L66,354 L65,354 L65,355 L64,355 L64,356 L63,356 L63,357 L62,357 L62,358 L61,358 L61,359 L60,359 L60,360 L59,360 L59,361 L58,361 L58,362 L57,362 L57,363 L56,363 L56,364 L55,364 L55,365 L54,365 L54,366 L53,366 L53,367 L52,367 L52,368 L51,368 L51,369 L50,369 L50,370 L49,370 L49,371 L48,371 L48,372 L47,372 L47,373 L46,373 L46,374 L45,374 L45,375 L44,375 L44,376 L43,376 L43,377 L42,377 L42,378 L41,378 L41,379 L40,379 L40,380 L39,380 L39,381 L38,381 L38,382 L37,382 L37,383 L36,383 L36,384 L35,384 L35,385 L34,385 L34,386 L33,386 L33,387 L32,387 L32,388 L31,388 L31,389 L30,389 L30,390 L29,390 L29,391 L28,391 L28,392 L27,392 L27,393 L26,393 L26,394 L25,394 L25,395 L24,395 L24,396 L23,396 L23,397 L22,397 L22,398 L21,398 L21,399 L20,399 L20,400 L19,400 L19,401 L18,401 L18,402 L17,402 L17,403 L16,403 L16,404 L15,404 L15,405 L14,405 L14,406 L13,406 L13,407 L12,407 L12,408 L11,408 L11,409 L10,409 L10,410 L9,410 L9,411 L8,411 L8,412 L7,412 L7,413 L6,413 L6,414 L5,414 L5,415 L4,415 L4,416 L3,416 L3,417 L2,417 L2,418 L1,418 L1,419 L0,419 L0,420 L-1,420 L-1,421 L-2,421 L-2,422 L-3,422 L-3,423 L-4,423 L-4,424 L-5,424 L-5,425 L-6,425 L-6,426 L-7,426 L-7,427 L-8,427 L-8,428 L-9,428 L-9,429 L-10,429 L-10,430 L-11,430 L-11,431 L-12,431 L-12,432 L-13,432 L-13,433 L-14,433 L-14,434 L-15,434 L-15,435 L-16,435 L-16,436 L-17,436 L-17,437 L-18,437 L-18,438 L-19,438 L-19,439 L-20,439 L-20,440 L-21,440 L-21,441 L-22,441 L-22,442 L-23,442 L-23,443 L-24,443 L-24,444 L-25,444 L-25,445 L-26,445 L-26,446 L-27,446 L-27,447 L-28,447 L-28,448 L-29,448 L-29,449 L-30,449 L-30,450 L-31,450 L-31,451 L-33,451 L-33,450 L-36,450 L-36,449 L-38,449 L-38,448 L-40,448 L-40,447 L-43,447 L-43,446 L-45,446 L-45,445 L-47,445 L-47,444 L-49,444 L-49,443 L-50,443 L-50,442 L-52,442 L-52,441 L-54,441 L-54,440 L-55,440 L-55,439 L-57,439 L-57,438 L-58,438 L-58,437 L-59,437 L-59,436 L-61,436 L-61,435 L-62,435 L-62,434 L-63,434 L-63,433 L-64,433 L-64,432 L-66,432 L-66,431 L-67,431 L-67,430 L-68,430 L-68,429 L-69,429 L-69,428 L-70,428 L-70,427 L-71,427 L-71,426 L-72,426 L-72,425 L-73,425 L-73,423 L-74,423 L-74,422 L-75,422 L-75,421 L-76,421 L-76,420 L-77,420 L-77,419 L-78,419 L-78,417 L-79,417 L-79,416 L-80,416 L-80,414 L-81,414 L-81,413 L-82,413 L-82,411 L-83,411 L-83,409 L-84,409 L-84,407 L-85,407 L-85,405 L-86,405 L-86,404 L-87,404 L-87,401 L-88,401 L-88,399 L-89,399 L-89,397 L-90,397 L-90,394 L-91,394 L-91,391 L-92,391 L-92,387 L-93,387 L-93,384 L-94,384 L-94,379 L-95,379 L-95,375 L-96,375 L-96,367 L-97,367 L-97,357 L-98,357 L-98,98 L-97,98 L-97,92 L-96,92 L-96,83 L-95,83 L-95,77 L-94,77 L-94,74 L-93,74 L-93,70 L-92,70 L-92,67 L-91,67 L-91,64 L-90,64 L-90,62 L-89,62 L-89,59 L-88,59 L-88,57 L-87,57 L-87,55 L-86,55 L-86,53 L-85,53 L-85,51 L-84,51 L-84,49 L-83,49 L-83,47 L-82,47 L-82,46 L-81,46 L-81,44 L-80,44 L-80,43 L-79,43 L-79,41 L-78,41 L-78,40 L-77,40 L-77,38 L-76,38 L-76,37 L-75,37 L-75,36 L-74,36 L-74,35 L-73,35 L-73,34 L-72,34 L-72,32 L-71,32 L-71,31 L-70,31 L-70,30 L-69,30 L-69,29 L-68,29 L-68,28 L-67,28 L-67,27 L-65,27 L-65,26 L-64,26 L-64,25 L-63,25 L-63,24 L-62,24 L-62,23 L-61,23 L-61,22 L-60,22 L-60,21 L-58,21 L-58,20 L-57,20 L-57,19 L-55,19 L-55,18 L-54,18 L-54,17 L-52,17 L-52,16 L-51,16 L-51,15 L-49,15 L-49,14 L-47,14 L-47,13 L-45,13 L-45,12 L-44,12 L-44,11 L-42,11 L-42,10 L-39,10 L-39,9 L-37,9 L-37,8 L-35,8 L-35,7 L-32,7 L-32,6 L-29,6 L-29,5 L-24,5 L-24,4 L-21,4 L-21,3 L-18,3 L-18,2 L-11,2 L-11,1 L0,1 Z M-13,51 L-13,52 L-15,52 L-15,53 L-16,53 L-16,54 L-17,54 L-17,55 L-18,55 L-18,56 L-19,56 L-19,58 L-20,58 L-20,64 L-19,64 L-19,66 L-18,66 L-18,68 L-17,68 L-17,69 L-16,69 L-16,70 L-15,70 L-15,71 L-14,71 L-14,72 L-12,72 L-12,73 L-11,73 L-11,74 L-9,74 L-9,75 L-8,75 L-8,76 L-7,76 L-7,77 L-5,77 L-5,78 L-4,78 L-4,79 L-3,79 L-3,80 L-1,80 L-1,81 L0,81 L0,82 L1,82 L1,83 L3,83 L3,84 L4,84 L4,85 L5,85 L5,86 L7,86 L7,87 L8,87 L8,88 L9,88 L9,89 L11,89 L11,90 L12,90 L12,91 L14,91 L14,92 L15,92 L15,93 L16,93 L16,94 L18,94 L18,95 L19,95 L19,96 L20,96 L20,97 L22,97 L22,98 L23,98 L23,99 L24,99 L24,100 L26,100 L26,101 L27,101 L27,102 L28,102 L28,103 L30,103 L30,104 L31,104 L31,105 L33,105 L33,107 L32,107 L32,108 L30,108 L30,109 L29,109 L29,110 L28,110 L28,111 L26,111 L26,112 L25,112 L25,113 L24,113 L24,114 L22,114 L22,115 L21,115 L21,116 L20,116 L20,117 L18,117 L18,118 L17,118 L17,119 L16,119 L16,120 L14,120 L14,121 L13,121 L13,122 L12,122 L12,123 L10,123 L10,124 L9,124 L9,125 L8,125 L8,126 L6,126 L6,127 L5,127 L5,128 L4,128 L4,129 L2,129 L2,130 L1,130 L1,131 L0,131 L0,132 L-1,132 L-1,133 L-3,133 L-3,134 L-4,134 L-4,135 L-6,135 L-6,136 L-7,136 L-7,137 L-8,137 L-8,138 L-9,138 L-9,139 L-11,139 L-11,140 L-12,140 L-12,141 L-13,141 L-13,142 L-14,142 L-14,143 L-15,143 L-15,144 L-16,144 L-16,145 L-17,145 L-17,154 L-16,154 L-16,155 L-15,155 L-15,156 L-14,156 L-14,157 L-13,157 L-13,158 L-12,158 L-12,159 L-3,159 L-3,158 L-1,158 L-1,157 L1,157 L1,156 L2,156 L2,155 L4,155 L4,154 L5,154 L5,153 L6,153 L6,152 L7,152 L7,151 L9,151 L9,150 L10,150 L10,149 L11,149 L11,148 L13,148 L13,147 L14,147 L14,146 L15,146 L15,145 L17,145 L17,144 L18,144 L18,143 L19,143 L19,142 L21,142 L21,141 L22,141 L22,140 L23,140 L23,139 L25,139 L25,138 L26,138 L26,137 L27,137 L27,136 L29,136 L29,135 L30,135 L30,134 L31,134 L31,133 L33,133 L33,132 L34,132 L34,131 L35,131 L35,130 L36,130 L36,129 L38,129 L38,128 L39,128 L39,127 L41,127 L41,126 L42,126 L42,125 L43,125 L43,124 L44,124 L44,123 L46,123 L46,122 L47,122 L47,121 L48,121 L48,120 L50,120 L50,119 L51,119 L51,118 L52,118 L52,117 L54,117 L54,116 L55,116 L55,115 L56,115 L56,114 L57,114 L57,113 L58,113 L58,112 L59,112 L59,110 L60,110 L60,102 L59,102 L59,100 L58,100 L58,99 L57,99 L57,98 L56,98 L56,97 L55,97 L55,96 L53,96 L53,95 L52,95 L52,94 L51,94 L51,93 L49,93 L49,92 L48,92 L48,91 L47,91 L47,90 L45,90 L45,89 L44,89 L44,88 L43,88 L43,87 L41,87 L41,86 L40,86 L40,85 L39,85 L39,84 L37,84 L37,83 L36,83 L36,82 L35,82 L35,81 L33,81 L33,80 L32,80 L32,79 L30,79 L30,78 L29,78 L29,77 L28,77 L28,76 L27,76 L27,75 L25,75 L25,74 L24,74 L24,73 L23,73 L23,72 L21,72 L21,71 L20,71 L20,70 L18,70 L18,69 L17,69 L17,68 L16,68 L16,67 L15,67 L15,66 L13,66 L13,65 L12,65 L12,64 L11,64 L11,63 L9,63 L9,62 L8,62 L8,61 L7,61 L7,60 L5,60 L5,59 L4,59 L4,58 L3,58 L3,57 L1,57 L1,56 L0,56 L0,55 L-2,55 L-2,54 L-3,54 L-3,53 L-4,53 L-4,52 L-6,52 L-6,51 Z M69,138 L69,139 L67,139 L67,140 L65,140 L65,141 L64,141 L64,142 L63,142 L63,144 L62,144 L62,145 L61,145 L61,152 L62,152 L62,154 L63,154 L63,155 L64,155 L64,156 L65,156 L65,157 L67,157 L67,158 L68,158 L68,159 L116,159 L116,158 L118,158 L118,157 L120,157 L120,156 L121,156 L121,155 L122,155 L122,154 L123,154 L123,151 L124,151 L124,145 L123,145 L123,143 L122,143 L122,142 L121,142 L121,141 L120,141 L120,140 L118,140 L118,139 L116,139 L116,138 Z M-28,220 L-28,221 L-32,221 L-32,222 L-34,222 L-34,223 L-36,223 L-36,224 L-38,224 L-38,225 L-40,225 L-40,226 L-41,226 L-41,227 L-42,227 L-42,228 L-43,228 L-43,229 L-44,229 L-44,230 L-45,230 L-45,231 L-46,231 L-46,233 L-47,233 L-47,235 L-48,235 L-48,238 L-49,238 L-49,249 L-48,249 L-48,252 L-47,252 L-47,254 L-46,254 L-46,256 L-45,256 L-45,257 L-44,257 L-44,258 L-43,258 L-43,259 L-42,259 L-42,260 L-41,260 L-41,261 L-40,261 L-40,262 L-38,262 L-38,263 L-36,263 L-36,264 L-33,264 L-33,265 L-30,265 L-30,266 L-26,266 L-26,267 L-21,267 L-21,268 L-16,268 L-16,269 L-13,269 L-13,270 L-10,270 L-10,271 L-8,271 L-8,272 L-6,272 L-6,274 L-5,274 L-5,279 L-6,279 L-6,281 L-8,281 L-8,282 L-10,282 L-10,283 L-12,283 L-12,284 L-24,284 L-24,283 L-26,283 L-26,282 L-28,282 L-28,281 L-29,281 L-29,280 L-30,280 L-30,279 L-31,279 L-31,276 L-32,276 L-32,275 L-50,275 L-50,281 L-49,281 L-49,284 L-48,284 L-48,286 L-47,286 L-47,287 L-46,287 L-46,289 L-45,289 L-45,290 L-44,290 L-44,291 L-43,291 L-43,292 L-42,292 L-42,293 L-41,293 L-41,294 L-39,294 L-39,295 L-37,295 L-37,296 L-35,296 L-35,297 L-33,297 L-33,298 L-30,298 L-30,299 L-24,299 L-24,300 L-12,300 L-12,299 L-6,299 L-6,298 L-4,298 L-4,297 L-1,297 L-1,296 L1,296 L1,295 L3,295 L3,294 L5,294 L5,293 L6,293 L6,292 L7,292 L7,291 L8,291 L8,290 L9,290 L9,288 L10,288 L10,287 L11,287 L11,285 L12,285 L12,283 L13,283 L13,279 L14,279 L14,270 L13,270 L13,266 L12,266 L12,264 L11,264 L11,262 L10,262 L10,261 L9,261 L9,260 L8,260 L8,259 L7,259 L7,258 L5,258 L5,257 L4,257 L4,256 L2,256 L2,255 L-1,255 L-1,254 L-3,254 L-3,253 L-7,253 L-7,252 L-12,252 L-12,251 L-15,251 L-15,250 L-19,250 L-19,249 L-24,249 L-24,248 L-27,248 L-27,247 L-28,247 L-28,246 L-29,246 L-29,245 L-30,245 L-30,240 L-29,240 L-29,239 L-28,239 L-28,238 L-27,238 L-27,237 L-26,237 L-26,236 L-23,236 L-23,235 L-15,235 L-15,236 L-13,236 L-13,237 L-10,237 L-10,238 L-9,238 L-9,239 L-8,239 L-8,240 L-7,240 L-7,242 L-6,242 L-6,243 L11,243 L11,236 L10,236 L10,233 L9,233 L9,232 L8,232 L8,230 L7,230 L7,229 L6,229 L6,228 L5,228 L5,227 L4,227 L4,226 L3,226 L3,225 L1,225 L1,224 L-1,224 L-1,223 L-3,223 L-3,222 L-5,222 L-5,221 L-10,221 L-10,220 Z M57,220 L57,221 L55,221 L55,222 L53,222 L53,223 L51,223 L51,224 L49,224 L49,225 L48,225 L48,226 L47,226 L47,227 L46,227 L46,228 L44,228 L44,230 L42,230 L42,223 L41,223 L41,222 L40,222 L40,221 L24,221 L24,222 L23,222 L23,223 L22,223 L22,325 L23,325 L23,326 L24,326 L24,327 L41,327 L41,326 L42,326 L42,290 L44,290 L44,292 L45,292 L45,293 L46,293 L46,294 L47,294 L47,295 L49,295 L49,296 L51,296 L51,297 L53,297 L53,298 L55,298 L55,299 L59,299 L59,300 L70,300 L70,299 L75,299 L75,298 L77,298 L77,297 L79,297 L79,296 L81,296 L81,295 L83,295 L83,294 L84,294 L84,293 L85,293 L85,292 L86,292 L86,291 L87,291 L87,290 L88,290 L88,289 L89,289 L89,287 L90,287 L90,286 L91,286 L91,284 L92,284 L92,283 L93,283 L93,280 L94,280 L94,278 L95,278 L95,275 L96,275 L96,271 L97,271 L97,248 L96,248 L96,243 L95,243 L95,240 L94,240 L94,238 L93,238 L93,236 L92,236 L92,235 L91,235 L91,233 L90,233 L90,232 L89,232 L89,230 L88,230 L88,229 L87,229 L87,228 L86,228 L86,227 L85,227 L85,226 L83,226 L83,225 L82,225 L82,224 L80,224 L80,223 L78,223 L78,222 L75,222 L75,221 L73,221 L73,220 Z " fill="#0173DD" transform="translate(101,1)"></path>
<path d="M0,0 L1,0 L1,1 L2,1 L2,2 L4,2 L4,3 L5,3 L5,4 L6,4 L6,5 L7,5 L7,6 L8,6 L8,7 L9,7 L9,9 L10,9 L10,10 L11,10 L11,11 L12,11 L12,12 L13,12 L13,13 L14,13 L14,15 L15,15 L15,16 L16,16 L16,18 L17,18 L17,19 L18,19 L18,21 L19,21 L19,22 L20,22 L20,24 L21,24 L21,26 L22,26 L22,28 L23,28 L23,30 L24,30 L24,32 L25,32 L25,34 L26,34 L26,37 L27,37 L27,40 L28,40 L28,42 L29,42 L29,46 L30,46 L30,50 L31,50 L31,56 L32,56 L32,60 L33,60 L33,70 L34,70 L34,337 L33,337 L33,349 L32,349 L32,353 L31,353 L31,359 L30,359 L30,363 L29,363 L29,366 L28,366 L28,369 L27,369 L27,372 L26,372 L26,374 L25,374 L25,377 L24,377 L24,379 L23,379 L23,381 L22,381 L22,383 L21,383 L21,385 L20,385 L20,386 L19,386 L19,388 L18,388 L18,390 L17,390 L17,391 L16,391 L16,393 L15,393 L15,394 L14,394 L14,395 L13,395 L13,396 L12,396 L12,398 L11,398 L11,399 L10,399 L10,400 L9,400 L9,401 L8,401 L8,402 L7,402 L7,403 L6,403 L6,404 L5,404 L5,405 L4,405 L4,406 L3,406 L3,407 L2,407 L2,408 L1,408 L1,409 L-1,409 L-1,410 L-2,410 L-2,411 L-3,411 L-3,412 L-4,412 L-4,413 L-6,413 L-6,414 L-7,414 L-7,415 L-9,415 L-9,416 L-10,416 L-10,417 L-12,417 L-12,418 L-14,418 L-14,419 L-16,419 L-16,420 L-18,420 L-18,421 L-19,421 L-19,422 L-22,422 L-22,423 L-24,423 L-24,424 L-26,424 L-26,425 L-29,425 L-29,426 L-33,426 L-33,427 L-36,427 L-36,428 L-40,428 L-40,429 L-45,429 L-45,430 L-49,430 L-49,431 L-59,431 L-59,432 L-332,432 L-332,431 L-342,431 L-342,430 L-346,430 L-346,429 L-351,429 L-351,428 L-356,428 L-356,427 L-358,427 L-358,426 L-360,426 L-360,425 L-359,425 L-359,424 L-358,424 L-358,423 L-357,423 L-357,422 L-356,422 L-356,421 L-355,421 L-355,420 L-354,420 L-354,419 L-353,419 L-353,418 L-352,418 L-352,417 L-351,417 L-351,416 L-350,416 L-350,415 L-349,415 L-349,414 L-348,414 L-348,413 L-347,413 L-347,412 L-346,412 L-346,411 L-345,411 L-345,410 L-344,410 L-344,409 L-343,409 L-343,408 L-342,408 L-342,407 L-341,407 L-341,406 L-340,406 L-340,405 L-339,405 L-339,404 L-338,404 L-338,403 L-337,403 L-337,402 L-336,402 L-336,401 L-335,401 L-335,400 L-334,400 L-334,399 L-333,399 L-333,398 L-332,398 L-332,397 L-331,397 L-331,396 L-330,396 L-330,395 L-329,395 L-329,394 L-328,394 L-328,393 L-327,393 L-327,392 L-326,392 L-326,391 L-325,391 L-325,390 L-324,390 L-324,389 L-323,389 L-323,388 L-322,388 L-322,387 L-321,387 L-321,386 L-320,386 L-320,385 L-319,385 L-319,384 L-318,384 L-318,383 L-317,383 L-317,382 L-316,382 L-316,381 L-315,381 L-315,380 L-314,380 L-314,379 L-313,379 L-313,378 L-312,378 L-312,377 L-311,377 L-311,376 L-310,376 L-310,375 L-309,375 L-309,374 L-308,374 L-308,373 L-307,373 L-307,372 L-306,372 L-306,371 L-305,371 L-305,370 L-304,370 L-304,369 L-303,369 L-303,368 L-302,368 L-302,367 L-301,367 L-301,366 L-300,366 L-300,365 L-299,365 L-299,364 L-298,364 L-298,363 L-297,363 L-297,362 L-296,362 L-296,361 L-295,361 L-295,360 L-294,360 L-294,359 L-293,359 L-293,358 L-292,358 L-292,357 L-291,357 L-291,356 L-290,356 L-290,355 L-289,355 L-289,354 L-288,354 L-288,353 L-287,353 L-287,352 L-286,352 L-286,351 L-285,351 L-285,350 L-284,350 L-284,349 L-283,349 L-283,348 L-282,348 L-282,347 L-281,347 L-281,346 L-280,346 L-280,345 L-279,345 L-279,344 L-278,344 L-278,343 L-277,343 L-277,342 L-276,342 L-276,341 L-275,341 L-275,340 L-274,340 L-274,339 L-273,339 L-273,338 L-272,338 L-272,337 L-271,337 L-271,336 L-270,336 L-270,335 L-269,335 L-269,334 L-268,334 L-268,333 L-267,333 L-267,332 L-266,332 L-266,331 L-265,331 L-265,330 L-264,330 L-264,329 L-263,329 L-263,328 L-262,328 L-262,327 L-261,327 L-261,326 L-260,326 L-260,325 L-259,325 L-259,324 L-258,324 L-258,323 L-257,323 L-257,322 L-256,322 L-256,321 L-255,321 L-255,320 L-254,320 L-254,319 L-253,319 L-253,318 L-252,318 L-252,317 L-251,317 L-251,316 L-250,316 L-250,315 L-249,315 L-249,314 L-248,314 L-248,313 L-247,313 L-247,312 L-246,312 L-246,311 L-245,311 L-245,310 L-244,310 L-244,309 L-243,309 L-243,308 L-242,308 L-242,307 L-241,307 L-241,305 L-240,305 L-240,304 L-238,304 L-238,303 L-237,303 L-237,302 L-236,302 L-236,301 L-235,301 L-235,300 L-234,300 L-234,299 L-233,299 L-233,297 L-232,297 L-232,296 L-231,296 L-231,295 L-230,295 L-230,294 L-228,294 L-228,293 L-227,293 L-227,291 L-226,291 L-226,290 L-225,290 L-225,289 L-224,289 L-224,288 L-223,288 L-223,287 L-222,287 L-222,286 L-221,286 L-221,285 L-220,285 L-220,284 L-219,284 L-219,283 L-218,283 L-218,282 L-217,282 L-217,281 L-216,281 L-216,280 L-215,280 L-215,279 L-214,279 L-214,278 L-213,278 L-213,277 L-212,277 L-212,276 L-211,276 L-211,275 L-210,275 L-210,274 L-209,274 L-209,273 L-208,273 L-208,272 L-204,272 L-204,273 L-186,273 L-186,272 L-185,272 L-185,185 L-184,185 L-184,184 L-183,184 L-183,183 L-182,183 L-182,182 L-181,182 L-181,181 L-180,181 L-180,180 L-179,180 L-179,179 L-178,179 L-178,178 L-177,178 L-177,177 L-176,177 L-176,176 L-175,176 L-175,175 L-174,175 L-174,174 L-173,174 L-173,173 L-172,173 L-172,172 L-171,172 L-171,171 L-170,171 L-170,170 L-169,170 L-169,169 L-168,169 L-168,168 L-167,168 L-167,167 L-166,167 L-166,166 L-165,166 L-165,165 L-164,165 L-164,164 L-163,164 L-163,163 L-162,163 L-162,162 L-161,162 L-161,161 L-160,161 L-160,160 L-159,160 L-159,159 L-158,159 L-158,158 L-157,158 L-157,157 L-156,157 L-156,156 L-155,156 L-155,155 L-154,155 L-154,154 L-153,154 L-153,153 L-152,153 L-152,152 L-151,152 L-151,151 L-150,151 L-150,150 L-149,150 L-149,149 L-148,149 L-148,148 L-147,148 L-147,147 L-146,147 L-146,146 L-145,146 L-145,145 L-144,145 L-144,144 L-143,144 L-143,143 L-142,143 L-142,142 L-141,142 L-141,141 L-140,141 L-140,140 L-139,140 L-139,139 L-138,139 L-138,138 L-137,138 L-137,137 L-136,137 L-136,136 L-135,136 L-135,135 L-134,135 L-134,134 L-133,134 L-133,133 L-132,133 L-132,132 L-131,132 L-131,131 L-130,131 L-130,130 L-129,130 L-129,129 L-128,129 L-128,128 L-127,128 L-127,127 L-126,127 L-126,126 L-125,126 L-125,125 L-124,125 L-124,124 L-123,124 L-123,123 L-122,123 L-122,122 L-121,122 L-121,121 L-120,121 L-120,120 L-119,120 L-119,119 L-118,119 L-118,118 L-117,118 L-117,117 L-116,117 L-116,116 L-115,116 L-115,115 L-114,115 L-114,114 L-113,114 L-113,113 L-112,113 L-112,112 L-111,112 L-111,111 L-110,111 L-110,110 L-109,110 L-109,109 L-108,109 L-108,108 L-107,108 L-107,107 L-106,107 L-106,106 L-105,106 L-105,105 L-104,105 L-104,104 L-103,104 L-103,103 L-102,103 L-102,102 L-101,102 L-101,101 L-100,101 L-100,100 L-99,100 L-99,99 L-98,99 L-98,98 L-97,98 L-97,97 L-96,97 L-96,96 L-95,96 L-95,95 L-94,95 L-94,94 L-93,94 L-93,93 L-92,93 L-92,92 L-91,92 L-91,91 L-90,91 L-90,90 L-89,90 L-89,89 L-88,89 L-88,88 L-87,88 L-87,87 L-86,87 L-86,86 L-85,86 L-85,85 L-84,85 L-84,84 L-83,84 L-83,83 L-82,83 L-82,82 L-81,82 L-81,81 L-80,81 L-80,80 L-79,80 L-79,79 L-78,79 L-78,78 L-77,78 L-77,77 L-76,77 L-76,76 L-75,76 L-75,75 L-74,75 L-74,74 L-73,74 L-73,73 L-72,73 L-72,72 L-71,72 L-71,71 L-70,71 L-70,70 L-69,70 L-69,69 L-68,69 L-68,68 L-67,68 L-67,67 L-66,67 L-66,66 L-65,66 L-65,65 L-64,65 L-64,64 L-63,64 L-63,63 L-62,63 L-62,62 L-61,62 L-61,61 L-60,61 L-60,60 L-59,60 L-59,59 L-58,59 L-58,58 L-57,58 L-57,57 L-56,57 L-56,56 L-55,56 L-55,55 L-54,55 L-54,54 L-53,54 L-53,53 L-52,53 L-52,52 L-51,52 L-51,51 L-50,51 L-50,50 L-49,50 L-49,49 L-48,49 L-48,48 L-47,48 L-47,47 L-46,47 L-46,46 L-45,46 L-45,45 L-44,45 L-44,44 L-43,44 L-43,43 L-42,43 L-42,42 L-41,42 L-41,41 L-40,41 L-40,40 L-39,40 L-39,39 L-38,39 L-38,38 L-37,38 L-37,37 L-36,37 L-36,36 L-35,36 L-35,35 L-34,35 L-34,34 L-33,34 L-33,33 L-32,33 L-32,32 L-31,32 L-31,31 L-30,31 L-30,30 L-29,30 L-29,29 L-28,29 L-28,28 L-27,28 L-27,27 L-26,27 L-26,26 L-25,26 L-25,25 L-24,25 L-24,24 L-23,24 L-23,23 L-22,23 L-22,22 L-21,22 L-21,21 L-20,21 L-20,20 L-19,20 L-19,19 L-18,19 L-18,18 L-17,18 L-17,17 L-16,17 L-16,16 L-15,16 L-15,15 L-14,15 L-14,14 L-13,14 L-13,13 L-12,13 L-12,12 L-11,12 L-11,11 L-10,11 L-10,10 L-9,10 L-9,9 L-8,9 L-8,8 L-7,8 L-7,7 L-6,7 L-6,6 L-5,6 L-5,5 L-4,5 L-4,4 L-3,4 L-3,3 L-2,3 L-2,2 L-1,2 L-1,1 L0,1 Z M-90,168 L-90,169 L-91,169 L-91,272 L-90,272 L-90,273 L-73,273 L-73,272 L-72,272 L-72,271 L-71,271 L-71,222 L-70,222 L-70,220 L-69,220 L-69,218 L-68,218 L-68,217 L-67,217 L-67,216 L-66,216 L-66,215 L-65,215 L-65,214 L-63,214 L-63,213 L-61,213 L-61,212 L-59,212 L-59,211 L-51,211 L-51,212 L-49,212 L-49,213 L-48,213 L-48,214 L-46,214 L-46,215 L-45,215 L-45,217 L-44,217 L-44,218 L-43,218 L-43,222 L-42,222 L-42,271 L-41,271 L-41,272 L-40,272 L-40,273 L-23,273 L-23,272 L-22,272 L-22,215 L-23,215 L-23,211 L-24,211 L-24,209 L-25,209 L-25,207 L-26,207 L-26,206 L-27,206 L-27,204 L-28,204 L-28,203 L-29,203 L-29,202 L-30,202 L-30,201 L-31,201 L-31,200 L-33,200 L-33,199 L-34,199 L-34,198 L-36,198 L-36,197 L-38,197 L-38,196 L-41,196 L-41,195 L-55,195 L-55,196 L-58,196 L-58,197 L-60,197 L-60,198 L-62,198 L-62,199 L-64,199 L-64,200 L-65,200 L-65,201 L-66,201 L-66,202 L-67,202 L-67,203 L-68,203 L-68,204 L-69,204 L-69,205 L-70,205 L-70,206 L-71,206 L-71,170 L-72,170 L-72,169 L-73,169 L-73,168 Z M-144,195 L-144,196 L-147,196 L-147,197 L-150,197 L-150,198 L-152,198 L-152,199 L-154,199 L-154,200 L-155,200 L-155,201 L-157,201 L-157,202 L-158,202 L-158,203 L-159,203 L-159,204 L-160,204 L-160,205 L-161,205 L-161,207 L-162,207 L-162,209 L-163,209 L-163,211 L-164,211 L-164,226 L-163,226 L-163,229 L-162,229 L-162,231 L-161,231 L-161,232 L-160,232 L-160,233 L-159,233 L-159,234 L-158,234 L-158,235 L-157,235 L-157,236 L-155,236 L-155,237 L-154,237 L-154,238 L-152,238 L-152,239 L-149,239 L-149,240 L-144,240 L-144,241 L-141,241 L-141,242 L-136,242 L-136,243 L-131,243 L-131,244 L-128,244 L-128,245 L-125,245 L-125,246 L-123,246 L-123,247 L-122,247 L-122,248 L-121,248 L-121,249 L-120,249 L-120,254 L-121,254 L-121,255 L-122,255 L-122,256 L-123,256 L-123,257 L-125,257 L-125,258 L-128,258 L-128,259 L-139,259 L-139,258 L-141,258 L-141,257 L-143,257 L-143,256 L-145,256 L-145,254 L-146,254 L-146,253 L-147,253 L-147,251 L-148,251 L-148,250 L-166,250 L-166,254 L-165,254 L-165,258 L-164,258 L-164,260 L-163,260 L-163,262 L-162,262 L-162,264 L-161,264 L-161,265 L-160,265 L-160,266 L-159,266 L-159,267 L-158,267 L-158,268 L-156,268 L-156,269 L-155,269 L-155,270 L-153,270 L-153,271 L-151,271 L-151,272 L-148,272 L-148,273 L-144,273 L-144,274 L-140,274 L-140,275 L-127,275 L-127,274 L-123,274 L-123,273 L-119,273 L-119,272 L-116,272 L-116,271 L-114,271 L-114,270 L-112,270 L-112,269 L-111,269 L-111,268 L-110,268 L-110,267 L-108,267 L-108,265 L-107,265 L-107,264 L-106,264 L-106,263 L-105,263 L-105,262 L-104,262 L-104,260 L-103,260 L-103,257 L-102,257 L-102,254 L-101,254 L-101,244 L-102,244 L-102,241 L-103,241 L-103,239 L-104,239 L-104,237 L-105,237 L-105,236 L-106,236 L-106,235 L-107,235 L-107,234 L-108,234 L-108,233 L-110,233 L-110,232 L-111,232 L-111,231 L-113,231 L-113,230 L-116,230 L-116,229 L-119,229 L-119,228 L-122,228 L-122,227 L-126,227 L-126,226 L-130,226 L-130,225 L-135,225 L-135,224 L-140,224 L-140,223 L-142,223 L-142,222 L-144,222 L-144,221 L-145,221 L-145,214 L-144,214 L-144,213 L-143,213 L-143,212 L-141,212 L-141,211 L-138,211 L-138,210 L-130,210 L-130,211 L-127,211 L-127,212 L-125,212 L-125,213 L-124,213 L-124,214 L-123,214 L-123,215 L-122,215 L-122,217 L-121,217 L-121,218 L-104,218 L-104,212 L-105,212 L-105,209 L-106,209 L-106,207 L-107,207 L-107,206 L-108,206 L-108,204 L-109,204 L-109,203 L-110,203 L-110,202 L-111,202 L-111,201 L-112,201 L-112,200 L-114,200 L-114,199 L-116,199 L-116,198 L-118,198 L-118,197 L-121,197 L-121,196 L-124,196 L-124,195 Z " fill="#43B532" transform="translate(430,26)"></path>
<path d="M0,0 L467,0 L467,463 L0,463 Z M101,1 L101,2 L90,2 L90,3 L83,3 L83,4 L80,4 L80,5 L77,5 L77,6 L72,6 L72,7 L69,7 L69,8 L66,8 L66,9 L64,9 L64,10 L62,10 L62,11 L59,11 L59,12 L57,12 L57,13 L56,13 L56,14 L54,14 L54,15 L52,15 L52,16 L50,16 L50,17 L49,17 L49,18 L47,18 L47,19 L46,19 L46,20 L44,20 L44,21 L43,21 L43,22 L41,22 L41,23 L40,23 L40,24 L39,24 L39,25 L38,25 L38,26 L37,26 L37,27 L36,27 L36,28 L34,28 L34,29 L33,29 L33,30 L32,30 L32,31 L31,31 L31,32 L30,32 L30,33 L29,33 L29,35 L28,35 L28,36 L27,36 L27,37 L26,37 L26,38 L25,38 L25,39 L24,39 L24,41 L23,41 L23,42 L22,42 L22,44 L21,44 L21,45 L20,45 L20,47 L19,47 L19,48 L18,48 L18,50 L17,50 L17,52 L16,52 L16,54 L15,54 L15,56 L14,56 L14,58 L13,58 L13,60 L12,60 L12,63 L11,63 L11,65 L10,65 L10,68 L9,68 L9,71 L8,71 L8,75 L7,75 L7,78 L6,78 L6,84 L5,84 L5,93 L4,93 L4,99 L3,99 L3,358 L4,358 L4,368 L5,368 L5,376 L6,376 L6,380 L7,380 L7,385 L8,385 L8,388 L9,388 L9,392 L10,392 L10,395 L11,395 L11,398 L12,398 L12,400 L13,400 L13,402 L14,402 L14,405 L15,405 L15,406 L16,406 L16,408 L17,408 L17,410 L18,410 L18,412 L19,412 L19,414 L20,414 L20,415 L21,415 L21,417 L22,417 L22,418 L23,418 L23,420 L24,420 L24,421 L25,421 L25,422 L26,422 L26,423 L27,423 L27,424 L28,424 L28,426 L29,426 L29,427 L30,427 L30,428 L31,428 L31,429 L32,429 L32,430 L33,430 L33,431 L34,431 L34,432 L35,432 L35,433 L37,433 L37,434 L38,434 L38,435 L39,435 L39,436 L40,436 L40,437 L42,437 L42,438 L43,438 L43,439 L44,439 L44,440 L46,440 L46,441 L47,441 L47,442 L49,442 L49,443 L51,443 L51,444 L52,444 L52,445 L54,445 L54,446 L56,446 L56,447 L58,447 L58,448 L61,448 L61,449 L63,449 L63,450 L65,450 L65,451 L68,451 L68,452 L72,452 L72,453 L74,453 L74,454 L79,454 L79,455 L84,455 L84,456 L88,456 L88,457 L98,457 L98,458 L371,458 L371,457 L381,457 L381,456 L385,456 L385,455 L390,455 L390,454 L394,454 L394,453 L397,453 L397,452 L401,452 L401,451 L404,451 L404,450 L406,450 L406,449 L408,449 L408,448 L411,448 L411,447 L412,447 L412,446 L414,446 L414,445 L416,445 L416,444 L418,444 L418,443 L420,443 L420,442 L421,442 L421,441 L423,441 L423,440 L424,440 L424,439 L426,439 L426,438 L427,438 L427,437 L428,437 L428,436 L429,436 L429,435 L431,435 L431,434 L432,434 L432,433 L433,433 L433,432 L434,432 L434,431 L435,431 L435,430 L436,430 L436,429 L437,429 L437,428 L438,428 L438,427 L439,427 L439,426 L440,426 L440,425 L441,425 L441,424 L442,424 L442,422 L443,422 L443,421 L444,421 L444,420 L445,420 L445,419 L446,419 L446,417 L447,417 L447,416 L448,416 L448,414 L449,414 L449,412 L450,412 L450,411 L451,411 L451,409 L452,409 L452,407 L453,407 L453,405 L454,405 L454,403 L455,403 L455,400 L456,400 L456,398 L457,398 L457,395 L458,395 L458,392 L459,392 L459,389 L460,389 L460,385 L461,385 L461,379 L462,379 L462,375 L463,375 L463,363 L464,363 L464,96 L463,96 L463,86 L462,86 L462,82 L461,82 L461,76 L460,76 L460,72 L459,72 L459,68 L458,68 L458,66 L457,66 L457,63 L456,63 L456,60 L455,60 L455,58 L454,58 L454,56 L453,56 L453,54 L452,54 L452,52 L451,52 L451,50 L450,50 L450,48 L449,48 L449,47 L448,47 L448,45 L447,45 L447,44 L446,44 L446,42 L445,42 L445,41 L444,41 L444,39 L443,39 L443,38 L442,38 L442,37 L441,37 L441,36 L440,36 L440,35 L439,35 L439,33 L438,33 L438,32 L437,32 L437,31 L436,31 L436,30 L435,30 L435,29 L434,29 L434,28 L432,28 L432,27 L431,27 L431,26 L430,26 L430,25 L429,25 L429,24 L428,24 L428,23 L427,23 L427,22 L425,22 L425,21 L424,21 L424,20 L422,20 L422,19 L421,19 L421,18 L419,18 L419,17 L417,17 L417,16 L416,16 L416,15 L414,15 L414,14 L412,14 L412,13 L410,13 L410,12 L408,12 L408,11 L406,11 L406,10 L403,10 L403,9 L401,9 L401,8 L397,8 L397,7 L394,7 L394,6 L392,6 L392,5 L387,5 L387,4 L380,4 L380,3 L377,3 L377,2 L361,2 L361,1 Z " fill="#F9FCFA" transform="translate(0,0)"></path>
<path d="M0,0 L16,0 L16,1 L18,1 L18,2 L21,2 L21,3 L23,3 L23,4 L25,4 L25,5 L26,5 L26,6 L28,6 L28,7 L29,7 L29,8 L30,8 L30,9 L31,9 L31,10 L32,10 L32,12 L33,12 L33,13 L34,13 L34,15 L35,15 L35,16 L36,16 L36,18 L37,18 L37,20 L38,20 L38,23 L39,23 L39,28 L40,28 L40,51 L39,51 L39,55 L38,55 L38,58 L37,58 L37,60 L36,60 L36,63 L35,63 L35,64 L34,64 L34,66 L33,66 L33,67 L32,67 L32,69 L31,69 L31,70 L30,70 L30,71 L29,71 L29,72 L28,72 L28,73 L27,73 L27,74 L26,74 L26,75 L24,75 L24,76 L22,76 L22,77 L20,77 L20,78 L18,78 L18,79 L13,79 L13,80 L2,80 L2,79 L-2,79 L-2,78 L-4,78 L-4,77 L-6,77 L-6,76 L-8,76 L-8,75 L-10,75 L-10,74 L-11,74 L-11,73 L-12,73 L-12,72 L-13,72 L-13,70 L-15,70 L-15,106 L-16,106 L-16,107 L-33,107 L-33,106 L-34,106 L-34,105 L-35,105 L-35,3 L-34,3 L-34,2 L-33,2 L-33,1 L-17,1 L-17,2 L-16,2 L-16,3 L-15,3 L-15,10 L-13,10 L-13,8 L-11,8 L-11,7 L-10,7 L-10,6 L-9,6 L-9,5 L-8,5 L-8,4 L-6,4 L-6,3 L-4,3 L-4,2 L-2,2 L-2,1 L0,1 Z M-3,17 L-3,18 L-6,18 L-6,19 L-7,19 L-7,20 L-8,20 L-8,21 L-9,21 L-9,22 L-10,22 L-10,23 L-11,23 L-11,24 L-12,24 L-12,26 L-13,26 L-13,28 L-14,28 L-14,33 L-15,33 L-15,48 L-14,48 L-14,53 L-13,53 L-13,55 L-12,55 L-12,57 L-11,57 L-11,58 L-10,58 L-10,59 L-9,59 L-9,60 L-8,60 L-8,61 L-6,61 L-6,62 L-4,62 L-4,63 L8,63 L8,62 L11,62 L11,61 L13,61 L13,60 L14,60 L14,59 L15,59 L15,58 L16,58 L16,56 L17,56 L17,55 L18,55 L18,52 L19,52 L19,49 L20,49 L20,45 L21,45 L21,34 L20,34 L20,31 L19,31 L19,27 L18,27 L18,25 L17,25 L17,23 L16,23 L16,22 L15,22 L15,21 L14,21 L14,20 L13,20 L13,19 L11,19 L11,18 L9,18 L9,17 Z " fill="#F2F0C9" transform="translate(158,221)"></path>
<path d="M0,0 L17,0 L17,1 L18,1 L18,2 L19,2 L19,38 L20,38 L20,37 L21,37 L21,36 L22,36 L22,35 L23,35 L23,34 L24,34 L24,33 L25,33 L25,32 L26,32 L26,31 L28,31 L28,30 L30,30 L30,29 L32,29 L32,28 L35,28 L35,27 L49,27 L49,28 L52,28 L52,29 L54,29 L54,30 L56,30 L56,31 L57,31 L57,32 L59,32 L59,33 L60,33 L60,34 L61,34 L61,35 L62,35 L62,36 L63,36 L63,38 L64,38 L64,39 L65,39 L65,41 L66,41 L66,43 L67,43 L67,47 L68,47 L68,104 L67,104 L67,105 L50,105 L50,104 L49,104 L49,103 L48,103 L48,54 L47,54 L47,50 L46,50 L46,49 L45,49 L45,47 L44,47 L44,46 L42,46 L42,45 L41,45 L41,44 L39,44 L39,43 L31,43 L31,44 L29,44 L29,45 L27,45 L27,46 L25,46 L25,47 L24,47 L24,48 L23,48 L23,49 L22,49 L22,50 L21,50 L21,52 L20,52 L20,54 L19,54 L19,103 L18,103 L18,104 L17,104 L17,105 L0,105 L0,104 L-1,104 L-1,1 L0,1 Z " fill="#F5F3C9" transform="translate(340,194)"></path>
<path d="M0,0 L7,0 L7,1 L9,1 L9,2 L10,2 L10,3 L11,3 L11,4 L13,4 L13,5 L14,5 L14,6 L16,6 L16,7 L17,7 L17,8 L18,8 L18,9 L20,9 L20,10 L21,10 L21,11 L22,11 L22,12 L24,12 L24,13 L25,13 L25,14 L26,14 L26,15 L28,15 L28,16 L29,16 L29,17 L30,17 L30,18 L31,18 L31,19 L33,19 L33,20 L34,20 L34,21 L36,21 L36,22 L37,22 L37,23 L38,23 L38,24 L40,24 L40,25 L41,25 L41,26 L42,26 L42,27 L43,27 L43,28 L45,28 L45,29 L46,29 L46,30 L48,30 L48,31 L49,31 L49,32 L50,32 L50,33 L52,33 L52,34 L53,34 L53,35 L54,35 L54,36 L56,36 L56,37 L57,37 L57,38 L58,38 L58,39 L60,39 L60,40 L61,40 L61,41 L62,41 L62,42 L64,42 L64,43 L65,43 L65,44 L66,44 L66,45 L68,45 L68,46 L69,46 L69,47 L70,47 L70,48 L71,48 L71,49 L72,49 L72,51 L73,51 L73,59 L72,59 L72,61 L71,61 L71,62 L70,62 L70,63 L69,63 L69,64 L68,64 L68,65 L67,65 L67,66 L65,66 L65,67 L64,67 L64,68 L63,68 L63,69 L61,69 L61,70 L60,70 L60,71 L59,71 L59,72 L57,72 L57,73 L56,73 L56,74 L55,74 L55,75 L54,75 L54,76 L52,76 L52,77 L51,77 L51,78 L49,78 L49,79 L48,79 L48,80 L47,80 L47,81 L46,81 L46,82 L44,82 L44,83 L43,83 L43,84 L42,84 L42,85 L40,85 L40,86 L39,86 L39,87 L38,87 L38,88 L36,88 L36,89 L35,89 L35,90 L34,90 L34,91 L32,91 L32,92 L31,92 L31,93 L30,93 L30,94 L28,94 L28,95 L27,95 L27,96 L26,96 L26,97 L24,97 L24,98 L23,98 L23,99 L22,99 L22,100 L20,100 L20,101 L19,101 L19,102 L18,102 L18,103 L17,103 L17,104 L15,104 L15,105 L14,105 L14,106 L12,106 L12,107 L10,107 L10,108 L1,108 L1,107 L0,107 L0,106 L-1,106 L-1,105 L-2,105 L-2,104 L-3,104 L-3,103 L-4,103 L-4,94 L-3,94 L-3,93 L-2,93 L-2,92 L-1,92 L-1,91 L0,91 L0,90 L1,90 L1,89 L2,89 L2,88 L4,88 L4,87 L5,87 L5,86 L6,86 L6,85 L7,85 L7,84 L9,84 L9,83 L10,83 L10,82 L12,82 L12,81 L13,81 L13,80 L14,80 L14,79 L15,79 L15,78 L17,78 L17,77 L18,77 L18,76 L19,76 L19,75 L21,75 L21,74 L22,74 L22,73 L23,73 L23,72 L25,72 L25,71 L26,71 L26,70 L27,70 L27,69 L29,69 L29,68 L30,68 L30,67 L31,67 L31,66 L33,66 L33,65 L34,65 L34,64 L35,64 L35,63 L37,63 L37,62 L38,62 L38,61 L39,61 L39,60 L41,60 L41,59 L42,59 L42,58 L43,58 L43,57 L45,57 L45,56 L46,56 L46,54 L44,54 L44,53 L43,53 L43,52 L41,52 L41,51 L40,51 L40,50 L39,50 L39,49 L37,49 L37,48 L36,48 L36,47 L35,47 L35,46 L33,46 L33,45 L32,45 L32,44 L31,44 L31,43 L29,43 L29,42 L28,42 L28,41 L27,41 L27,40 L25,40 L25,39 L24,39 L24,38 L22,38 L22,37 L21,37 L21,36 L20,36 L20,35 L18,35 L18,34 L17,34 L17,33 L16,33 L16,32 L14,32 L14,31 L13,31 L13,30 L12,30 L12,29 L10,29 L10,28 L9,28 L9,27 L8,27 L8,26 L6,26 L6,25 L5,25 L5,24 L4,24 L4,23 L2,23 L2,22 L1,22 L1,21 L-1,21 L-1,20 L-2,20 L-2,19 L-3,19 L-3,18 L-4,18 L-4,17 L-5,17 L-5,15 L-6,15 L-6,13 L-7,13 L-7,7 L-6,7 L-6,5 L-5,5 L-5,4 L-4,4 L-4,3 L-3,3 L-3,2 L-2,2 L-2,1 L0,1 Z " fill="#F4F2C9" transform="translate(88,52)"></path>
<path d="M0,0 L20,0 L20,1 L23,1 L23,2 L26,2 L26,3 L28,3 L28,4 L30,4 L30,5 L32,5 L32,6 L33,6 L33,7 L34,7 L34,8 L35,8 L35,9 L36,9 L36,11 L37,11 L37,12 L38,12 L38,14 L39,14 L39,17 L40,17 L40,23 L23,23 L23,22 L22,22 L22,20 L21,20 L21,19 L20,19 L20,18 L19,18 L19,17 L17,17 L17,16 L14,16 L14,15 L6,15 L6,16 L3,16 L3,17 L1,17 L1,18 L0,18 L0,19 L-1,19 L-1,26 L0,26 L0,27 L2,27 L2,28 L4,28 L4,29 L9,29 L9,30 L14,30 L14,31 L18,31 L18,32 L22,32 L22,33 L25,33 L25,34 L28,34 L28,35 L31,35 L31,36 L33,36 L33,37 L34,37 L34,38 L36,38 L36,39 L37,39 L37,40 L38,40 L38,41 L39,41 L39,42 L40,42 L40,44 L41,44 L41,46 L42,46 L42,49 L43,49 L43,59 L42,59 L42,62 L41,62 L41,65 L40,65 L40,67 L39,67 L39,68 L38,68 L38,69 L37,69 L37,70 L36,70 L36,72 L34,72 L34,73 L33,73 L33,74 L32,74 L32,75 L30,75 L30,76 L28,76 L28,77 L25,77 L25,78 L21,78 L21,79 L17,79 L17,80 L4,80 L4,79 L0,79 L0,78 L-4,78 L-4,77 L-7,77 L-7,76 L-9,76 L-9,75 L-11,75 L-11,74 L-12,74 L-12,73 L-14,73 L-14,72 L-15,72 L-15,71 L-16,71 L-16,70 L-17,70 L-17,69 L-18,69 L-18,67 L-19,67 L-19,65 L-20,65 L-20,63 L-21,63 L-21,59 L-22,59 L-22,55 L-4,55 L-4,56 L-3,56 L-3,58 L-2,58 L-2,59 L-1,59 L-1,61 L1,61 L1,62 L3,62 L3,63 L5,63 L5,64 L16,64 L16,63 L19,63 L19,62 L21,62 L21,61 L22,61 L22,60 L23,60 L23,59 L24,59 L24,54 L23,54 L23,53 L22,53 L22,52 L21,52 L21,51 L19,51 L19,50 L16,50 L16,49 L13,49 L13,48 L8,48 L8,47 L3,47 L3,46 L0,46 L0,45 L-5,45 L-5,44 L-8,44 L-8,43 L-10,43 L-10,42 L-11,42 L-11,41 L-13,41 L-13,40 L-14,40 L-14,39 L-15,39 L-15,38 L-16,38 L-16,37 L-17,37 L-17,36 L-18,36 L-18,34 L-19,34 L-19,31 L-20,31 L-20,16 L-19,16 L-19,14 L-18,14 L-18,12 L-17,12 L-17,10 L-16,10 L-16,9 L-15,9 L-15,8 L-14,8 L-14,7 L-13,7 L-13,6 L-11,6 L-11,5 L-10,5 L-10,4 L-8,4 L-8,3 L-6,3 L-6,2 L-3,2 L-3,1 L0,1 Z " fill="#F4F3C8" transform="translate(286,221)"></path>
<path d="M0,0 L18,0 L18,1 L23,1 L23,2 L25,2 L25,3 L27,3 L27,4 L29,4 L29,5 L31,5 L31,6 L32,6 L32,7 L33,7 L33,8 L34,8 L34,9 L35,9 L35,10 L36,10 L36,12 L37,12 L37,13 L38,13 L38,16 L39,16 L39,23 L22,23 L22,22 L21,22 L21,20 L20,20 L20,19 L19,19 L19,18 L18,18 L18,17 L15,17 L15,16 L13,16 L13,15 L5,15 L5,16 L2,16 L2,17 L1,17 L1,18 L0,18 L0,19 L-1,19 L-1,20 L-2,20 L-2,25 L-1,25 L-1,26 L0,26 L0,27 L1,27 L1,28 L4,28 L4,29 L9,29 L9,30 L13,30 L13,31 L16,31 L16,32 L21,32 L21,33 L25,33 L25,34 L27,34 L27,35 L30,35 L30,36 L32,36 L32,37 L33,37 L33,38 L35,38 L35,39 L36,39 L36,40 L37,40 L37,41 L38,41 L38,42 L39,42 L39,44 L40,44 L40,46 L41,46 L41,50 L42,50 L42,59 L41,59 L41,63 L40,63 L40,65 L39,65 L39,67 L38,67 L38,68 L37,68 L37,70 L36,70 L36,71 L35,71 L35,72 L34,72 L34,73 L33,73 L33,74 L31,74 L31,75 L29,75 L29,76 L27,76 L27,77 L24,77 L24,78 L22,78 L22,79 L16,79 L16,80 L4,80 L4,79 L-2,79 L-2,78 L-5,78 L-5,77 L-7,77 L-7,76 L-9,76 L-9,75 L-11,75 L-11,74 L-13,74 L-13,73 L-14,73 L-14,72 L-15,72 L-15,71 L-16,71 L-16,70 L-17,70 L-17,69 L-18,69 L-18,67 L-19,67 L-19,66 L-20,66 L-20,64 L-21,64 L-21,61 L-22,61 L-22,55 L-4,55 L-4,56 L-3,56 L-3,59 L-2,59 L-2,60 L-1,60 L-1,61 L0,61 L0,62 L2,62 L2,63 L4,63 L4,64 L16,64 L16,63 L18,63 L18,62 L20,62 L20,61 L22,61 L22,59 L23,59 L23,54 L22,54 L22,52 L20,52 L20,51 L18,51 L18,50 L15,50 L15,49 L12,49 L12,48 L7,48 L7,47 L2,47 L2,46 L-2,46 L-2,45 L-5,45 L-5,44 L-8,44 L-8,43 L-10,43 L-10,42 L-12,42 L-12,41 L-13,41 L-13,40 L-14,40 L-14,39 L-15,39 L-15,38 L-16,38 L-16,37 L-17,37 L-17,36 L-18,36 L-18,34 L-19,34 L-19,32 L-20,32 L-20,29 L-21,29 L-21,18 L-20,18 L-20,15 L-19,15 L-19,13 L-18,13 L-18,11 L-17,11 L-17,10 L-16,10 L-16,9 L-15,9 L-15,8 L-14,8 L-14,7 L-13,7 L-13,6 L-12,6 L-12,5 L-10,5 L-10,4 L-8,4 L-8,3 L-6,3 L-6,2 L-4,2 L-4,1 L0,1 Z " fill="#F3F1C9" transform="translate(73,221)"></path>
<path d="M0,0 L17,0 L17,1 L18,1 L18,2 L19,2 L19,103 L18,103 L18,104 L0,104 L0,103 L-2,103 L-2,26 L-4,26 L-4,27 L-6,27 L-6,28 L-7,28 L-7,29 L-8,29 L-8,30 L-10,30 L-10,31 L-11,31 L-11,32 L-12,32 L-12,33 L-13,33 L-13,34 L-15,34 L-15,35 L-16,35 L-16,36 L-17,36 L-17,37 L-19,37 L-19,38 L-20,38 L-20,39 L-24,39 L-24,37 L-25,37 L-25,20 L-24,20 L-24,18 L-22,18 L-22,17 L-21,17 L-21,16 L-20,16 L-20,15 L-18,15 L-18,14 L-17,14 L-17,13 L-16,13 L-16,12 L-15,12 L-15,11 L-13,11 L-13,10 L-12,10 L-12,9 L-10,9 L-10,8 L-9,8 L-9,7 L-8,7 L-8,6 L-7,6 L-7,5 L-5,5 L-5,4 L-4,4 L-4,3 L-3,3 L-3,2 L-1,2 L-1,1 L0,1 Z " fill="#F3F2C9" transform="translate(226,195)"></path>
<path d="M0,0 L12,0 L12,1 L14,1 L14,2 L16,2 L16,3 L17,3 L17,4 L18,4 L18,5 L19,5 L19,6 L20,6 L20,8 L21,8 L21,10 L22,10 L22,14 L23,14 L23,17 L24,17 L24,28 L23,28 L23,32 L22,32 L22,35 L21,35 L21,38 L20,38 L20,39 L19,39 L19,41 L18,41 L18,42 L17,42 L17,43 L16,43 L16,44 L14,44 L14,45 L11,45 L11,46 L-1,46 L-1,45 L-3,45 L-3,44 L-5,44 L-5,43 L-6,43 L-6,42 L-7,42 L-7,41 L-8,41 L-8,40 L-9,40 L-9,38 L-10,38 L-10,36 L-11,36 L-11,31 L-12,31 L-12,16 L-11,16 L-11,11 L-10,11 L-10,9 L-9,9 L-9,7 L-8,7 L-8,6 L-7,6 L-7,5 L-6,5 L-6,4 L-5,4 L-5,3 L-4,3 L-4,2 L-3,2 L-3,1 L0,1 Z " fill="#0373DB" transform="translate(155,238)"></path>
<path d="M0,0 L47,0 L47,1 L49,1 L49,2 L51,2 L51,3 L52,3 L52,4 L53,4 L53,5 L54,5 L54,7 L55,7 L55,13 L54,13 L54,16 L53,16 L53,17 L52,17 L52,18 L51,18 L51,19 L49,19 L49,20 L47,20 L47,21 L-1,21 L-1,20 L-2,20 L-2,19 L-4,19 L-4,18 L-5,18 L-5,17 L-6,17 L-6,16 L-7,16 L-7,14 L-8,14 L-8,7 L-7,7 L-7,6 L-6,6 L-6,4 L-5,4 L-5,3 L-4,3 L-4,2 L-2,2 L-2,1 L0,1 Z " fill="#EDEFC9" transform="translate(170,139)"></path>
<path d="M0,0 L1,0 L1,1 L0,1 Z M-1,1 L0,1 L0,2 L-1,2 Z M-2,2 L-1,2 L-1,3 L-2,3 Z M-3,3 L-2,3 L-2,4 L-3,4 Z M-4,4 L-3,4 L-3,5 L-4,5 Z M-5,5 L-4,5 L-4,6 L-5,6 Z M-6,6 L-5,6 L-5,7 L-6,7 Z M-7,7 L-6,7 L-6,8 L-7,8 Z M-8,8 L-7,8 L-7,9 L-8,9 Z M-9,9 L-8,9 L-8,10 L-9,10 Z M-10,10 L-9,10 L-9,11 L-10,11 Z M-11,11 L-10,11 L-10,12 L-11,12 Z M-12,12 L-11,12 L-11,13 L-12,13 Z M-13,13 L-12,13 L-12,14 L-13,14 Z M-14,14 L-13,14 L-13,15 L-14,15 Z M-15,15 L-14,15 L-14,16 L-15,16 Z M-16,16 L-15,16 L-15,17 L-16,17 Z M-17,17 L-16,17 L-16,18 L-17,18 Z M-18,18 L-17,18 L-17,19 L-18,19 Z M-19,19 L-18,19 L-18,20 L-19,20 Z M-20,20 L-19,20 L-19,21 L-20,21 Z M-21,21 L-20,21 L-20,22 L-21,22 Z M-22,22 L-21,22 L-21,23 L-22,23 Z M-23,23 L-22,23 L-22,24 L-23,24 Z M-24,24 L-23,24 L-23,25 L-24,25 Z M-25,25 L-24,25 L-24,26 L-25,26 Z M-26,26 L-25,26 L-25,27 L-26,27 Z M-27,27 L-26,27 L-26,28 L-27,28 Z M-28,28 L-27,28 L-27,29 L-28,29 Z M-29,29 L-28,29 L-28,30 L-29,30 Z M-30,30 L-29,30 L-29,31 L-30,31 Z M-31,31 L-30,31 L-30,32 L-31,32 Z M-32,32 L-31,32 L-31,33 L-32,33 Z M-33,33 L-32,33 L-32,34 L-33,34 Z M-34,34 L-33,34 L-33,35 L-34,35 Z M-35,35 L-34,35 L-34,36 L-35,36 Z M-36,36 L-35,36 L-35,37 L-36,37 Z M-37,37 L-36,37 L-36,38 L-37,38 Z M-38,38 L-37,38 L-37,39 L-38,39 Z M-39,39 L-38,39 L-38,40 L-39,40 Z M-40,40 L-39,40 L-39,41 L-40,41 Z M-41,41 L-40,41 L-40,42 L-41,42 Z M-42,42 L-41,42 L-41,43 L-42,43 Z M-43,43 L-42,43 L-42,44 L-43,44 Z M-44,44 L-43,44 L-43,45 L-44,45 Z M-45,45 L-44,45 L-44,46 L-45,46 Z M-46,46 L-45,46 L-45,47 L-46,47 Z M-47,47 L-46,47 L-46,48 L-47,48 Z M-48,48 L-47,48 L-47,49 L-48,49 Z M-49,49 L-48,49 L-48,50 L-49,50 Z M-50,50 L-49,50 L-49,51 L-50,51 Z M-51,51 L-50,51 L-50,52 L-51,52 Z M-52,52 L-51,52 L-51,53 L-52,53 Z M-53,53 L-52,53 L-52,54 L-53,54 Z M-54,54 L-53,54 L-53,55 L-54,55 Z M-55,55 L-54,55 L-54,56 L-55,56 Z M-56,56 L-55,56 L-55,57 L-56,57 Z M-57,57 L-56,57 L-56,58 L-57,58 Z M-58,58 L-57,58 L-57,59 L-58,59 Z M-59,59 L-58,59 L-58,60 L-59,60 Z M-60,60 L-59,60 L-59,61 L-60,61 Z M-61,61 L-60,61 L-60,62 L-61,62 Z M-62,62 L-61,62 L-61,63 L-62,63 Z M-63,63 L-62,63 L-62,64 L-63,64 Z M-64,64 L-63,64 L-63,65 L-64,65 Z M-65,65 L-64,65 L-64,66 L-65,66 Z M-66,66 L-65,66 L-65,67 L-66,67 Z M-67,67 L-66,67 L-66,68 L-67,68 Z M-68,68 L-67,68 L-67,69 L-68,69 Z M-69,69 L-68,69 L-68,70 L-69,70 Z M-70,70 L-69,70 L-69,71 L-70,71 Z M-71,71 L-70,71 L-70,72 L-71,72 Z M-72,72 L-71,72 L-71,73 L-72,73 Z M-73,73 L-72,73 L-72,74 L-73,74 Z M-74,74 L-73,74 L-73,75 L-74,75 Z M-75,75 L-74,75 L-74,76 L-75,76 Z M-76,76 L-75,76 L-75,77 L-76,77 Z M-77,77 L-76,77 L-76,78 L-77,78 Z M-78,78 L-77,78 L-77,79 L-78,79 Z M-79,79 L-78,79 L-78,80 L-79,80 Z M-80,80 L-79,80 L-79,81 L-80,81 Z M-81,81 L-80,81 L-80,82 L-81,82 Z M-82,82 L-81,82 L-81,83 L-82,83 Z M-83,83 L-82,83 L-82,84 L-83,84 Z M-84,84 L-83,84 L-83,85 L-84,85 Z M-85,85 L-84,85 L-84,86 L-85,86 Z M-86,86 L-85,86 L-85,87 L-86,87 Z M-87,87 L-86,87 L-86,88 L-87,88 Z M-88,88 L-87,88 L-87,89 L-88,89 Z M-89,89 L-88,89 L-88,90 L-89,90 Z M-90,90 L-89,90 L-89,91 L-90,91 Z M-91,91 L-90,91 L-90,92 L-91,92 Z M-92,92 L-91,92 L-91,93 L-92,93 Z M-93,93 L-92,93 L-92,94 L-93,94 Z M-94,94 L-93,94 L-93,95 L-94,95 Z M-95,95 L-94,95 L-94,96 L-95,96 Z M-96,96 L-95,96 L-95,97 L-96,97 Z M-97,97 L-96,97 L-96,98 L-97,98 Z M-98,98 L-97,98 L-97,99 L-98,99 Z M-99,99 L-98,99 L-98,100 L-99,100 Z M-100,100 L-99,100 L-99,101 L-100,101 Z M-101,101 L-100,101 L-100,102 L-101,102 Z M-102,102 L-101,102 L-101,103 L-102,103 Z M-103,103 L-102,103 L-102,104 L-103,104 Z M-104,104 L-103,104 L-103,105 L-104,105 Z M-105,105 L-104,105 L-104,106 L-105,106 Z M-106,106 L-105,106 L-105,107 L-106,107 Z M-107,107 L-106,107 L-106,108 L-107,108 Z M-108,108 L-107,108 L-107,109 L-108,109 Z M-109,109 L-108,109 L-108,110 L-109,110 Z M-110,110 L-109,110 L-109,111 L-110,111 Z M-111,111 L-110,111 L-110,112 L-111,112 Z M-112,112 L-111,112 L-111,113 L-112,113 Z M-113,113 L-112,113 L-112,114 L-113,114 Z M-114,114 L-113,114 L-113,115 L-114,115 Z M-115,115 L-114,115 L-114,116 L-115,116 Z M-116,116 L-115,116 L-115,117 L-116,117 Z M-117,117 L-116,117 L-116,118 L-117,118 Z M-118,118 L-117,118 L-117,119 L-118,119 Z M-119,119 L-118,119 L-118,120 L-119,120 Z M-120,120 L-119,120 L-119,121 L-120,121 Z M-121,121 L-120,121 L-120,122 L-121,122 Z M-122,122 L-121,122 L-121,123 L-122,123 Z M-123,123 L-122,123 L-122,124 L-123,124 Z M-124,124 L-123,124 L-123,125 L-124,125 Z M-125,125 L-124,125 L-124,126 L-125,126 Z M-126,126 L-125,126 L-125,127 L-126,127 Z M-127,127 L-126,127 L-126,128 L-127,128 Z M-128,128 L-127,128 L-127,129 L-128,129 Z M-129,129 L-128,129 L-128,130 L-129,130 Z M-130,130 L-129,130 L-129,131 L-130,131 Z M-131,131 L-130,131 L-130,132 L-131,132 Z M-132,132 L-131,132 L-131,133 L-132,133 Z M-133,133 L-132,133 L-132,134 L-133,134 Z M-134,134 L-133,134 L-133,135 L-134,135 Z M-135,135 L-134,135 L-134,136 L-135,136 Z M-136,136 L-135,136 L-135,137 L-136,137 Z M-137,137 L-136,137 L-136,138 L-137,138 Z M-138,138 L-137,138 L-137,139 L-138,139 Z M-139,139 L-138,139 L-138,140 L-139,140 Z M-140,140 L-139,140 L-139,141 L-140,141 Z M-141,141 L-140,141 L-140,142 L-141,142 Z M-142,142 L-141,142 L-141,143 L-142,143 Z M-143,143 L-142,143 L-142,144 L-143,144 Z M-144,144 L-143,144 L-143,145 L-144,145 Z M-145,145 L-144,145 L-144,146 L-145,146 Z M-146,146 L-145,146 L-145,147 L-146,147 Z M-147,147 L-146,147 L-146,148 L-147,148 Z M-148,148 L-147,148 L-147,149 L-148,149 Z M-149,149 L-148,149 L-148,150 L-149,150 Z M-150,150 L-149,150 L-149,151 L-150,151 Z M-151,151 L-150,151 L-150,152 L-151,152 Z M-152,152 L-151,152 L-151,153 L-152,153 Z M-153,153 L-152,153 L-152,154 L-153,154 Z M-154,154 L-153,154 L-153,155 L-154,155 Z M-155,155 L-154,155 L-154,156 L-155,156 Z M-156,156 L-155,156 L-155,157 L-156,157 Z M-157,157 L-156,157 L-156,158 L-157,158 Z M-158,158 L-157,158 L-157,159 L-158,159 Z M-159,159 L-158,159 L-158,160 L-159,160 Z M-160,160 L-159,160 L-159,161 L-160,161 Z M-161,161 L-160,161 L-160,162 L-161,162 Z M-162,162 L-161,162 L-161,163 L-162,163 Z M-163,163 L-162,163 L-162,164 L-163,164 Z M-164,164 L-163,164 L-163,165 L-164,165 Z M-165,165 L-164,165 L-164,166 L-165,166 Z M-166,166 L-165,166 L-165,167 L-166,167 Z M-167,167 L-166,167 L-166,168 L-167,168 Z M-168,168 L-167,168 L-167,169 L-168,169 Z M-169,169 L-168,169 L-168,170 L-169,170 Z M-170,170 L-169,170 L-169,171 L-170,171 Z M-171,171 L-170,171 L-170,172 L-171,172 Z M-172,172 L-171,172 L-171,173 L-172,173 Z M-173,173 L-172,173 L-172,174 L-173,174 Z M-174,174 L-173,174 L-173,175 L-174,175 Z M-175,175 L-174,175 L-174,176 L-175,176 Z M-176,176 L-175,176 L-175,177 L-176,177 Z M-177,177 L-176,177 L-176,178 L-177,178 Z M-178,178 L-177,178 L-177,179 L-178,179 Z M-179,179 L-178,179 L-178,180 L-179,180 Z M-180,180 L-179,180 L-179,181 L-180,181 Z M-181,181 L-180,181 L-180,182 L-181,182 Z M-182,182 L-181,182 L-181,183 L-182,183 Z M-183,183 L-182,183 L-182,184 L-183,184 Z M-184,184 L-183,184 L-183,185 L-184,185 Z " fill="#43B532" transform="translate(429,26)"></path>
</svg><style>@media (prefers-color-scheme: light) { :root { filter: none; } }
@media (prefers-color-scheme: dark) { :root { filter: none; } }
</style></svg>